<svg width="2535" height="1225" xmlns="http://www.w3.org/2000/svg" xmlns:xlink="http://www.w3.org/1999/xlink" xml:space="preserve" overflow="hidden"><g transform="translate(-202 -12)"><text font-family="Cascadia Code,Cascadia Code_MSFontService,sans-serif" font-weight="400" font-size="83" transform="matrix(1 0 0 1 385.331 418)">00001001</text><text font-family="Cascadia Code,Cascadia Code_MSFontService,sans-serif" font-weight="400" font-size="83" transform="matrix(1 0 0 1 385.331 517)">00000101</text><text font-family="Cascadia Code,Cascadia Code_MSFontService,sans-serif" font-weight="400" font-size="83" transform="matrix(1 0 0 1 385.331 616)">00000001</text><path d="M269.5 538.5 786.831 538.501" stroke="#000000" stroke-width="6.875" stroke-miterlimit="8" fill="none" fill-rule="evenodd"/><text fill="#0063B1" font-family="Cascadia Code,Cascadia Code_MSFontService,sans-serif" font-weight="400" font-size="83" transform="matrix(1 0 0 1 286.781 518)">&amp;</text><text font-family="Cascadia Code,Cascadia Code_MSFontService,sans-serif" font-weight="400" font-size="83" transform="matrix(1 0 0 1 1288.49 418)">00001001</text><text font-family="Cascadia Code,Cascadia Code_MSFontService,sans-serif" font-weight="400" font-size="83" transform="matrix(1 0 0 1 1288.49 517)">00000101</text><text font-family="Cascadia Code,Cascadia Code_MSFontService,sans-serif" font-weight="400" font-size="83" transform="matrix(1 0 0 1 1288.49 616)">00001101</text><path d="M1172.5 538.5 1689.83 538.501" stroke="#000000" stroke-width="6.875" stroke-miterlimit="8" fill="none" fill-rule="evenodd"/><text fill="#0063B1" font-family="Cascadia Code,Cascadia Code_MSFontService,sans-serif" font-weight="400" font-size="73" transform="matrix(1 0 0 1 1195.09 509)">|</text><text font-family="Cascadia Code,Cascadia Code_MSFontService,sans-serif" font-weight="400" font-size="83" transform="matrix(1 0 0 1 2191.65 418)">00001001</text><text font-family="Cascadia Code,Cascadia Code_MSFontService,sans-serif" font-weight="400" font-size="83" transform="matrix(1 0 0 1 2191.65 517)">00000101</text><text font-family="Cascadia Code,Cascadia Code_MSFontService,sans-serif" font-weight="400" font-size="83" transform="matrix(1 0 0 1 2191.65 616)">00001100</text><path d="M2076.5 538.5 2593.83 538.501" stroke="#000000" stroke-width="6.875" stroke-miterlimit="8" fill="none" fill-rule="evenodd"/><text fill="#0063B1" font-family="Cascadia Code,Cascadia Code_MSFontService,sans-serif" font-weight="400" font-size="83" transform="matrix(1 0 0 1 2093.1 518)">^</text><path d="M269.5 1088.5 786.831 1088.5" stroke="#000000" stroke-width="6.875" stroke-miterlimit="8" fill="none" fill-rule="evenodd"/><text fill="#0063B1" font-family="Cascadia Code,Cascadia Code_MSFontService,sans-serif" font-weight="400" font-size="83" transform="matrix(1 0 0 1 286.781 1067)">~</text><text font-family="Cascadia Code,Cascadia Code_MSFontService,sans-serif" font-weight="400" font-size="83" transform="matrix(1 0 0 1 385.331 1066)">00000101</text><text font-family="Cascadia Code,Cascadia Code_MSFontService,sans-serif" font-weight="400" font-size="83" transform="matrix(1 0 0 1 385.331 1165)">11111010</text><text font-family="Cascadia Code,Cascadia Code_MSFontService,sans-serif" font-weight="400" font-size="83" transform="matrix(1 0 0 1 1288.49 1066)">00000101</text><text fill="#D9D9D9" font-family="Cascadia Code,Cascadia Code_MSFontService,sans-serif" font-weight="400" font-size="83" transform="matrix(1 0 0 1 1238.86 1166)">0</text><text font-family="Cascadia Code,Cascadia Code_MSFontService,sans-serif" font-weight="400" font-size="83" transform="matrix(1 0 0 1 1286.99 1166)">0000101</text><text fill="#0063B1" font-family="Cascadia Code,Cascadia Code_MSFontService,sans-serif" font-weight="400" font-size="83" transform="matrix(1 0 0 1 1623.86 1166)">0</text><text font-family="Cascadia Code,Cascadia Code_MSFontService,sans-serif" font-weight="400" font-size="83" transform="matrix(1 0 0 1 2191.65 1068)">00000101</text><text fill="#0063B1" font-family="Cascadia Code,Cascadia Code_MSFontService,sans-serif" font-weight="400" font-size="83" transform="matrix(1 0 0 1 2189.17 1167)">0</text><text font-family="Cascadia Code,Cascadia Code_MSFontService,sans-serif" font-weight="400" font-size="83" transform="matrix(1 0 0 1 2237.29 1167)">0000010</text><text fill="#D9D9D9" font-family="Cascadia Code,Cascadia Code_MSFontService,sans-serif" font-weight="400" font-size="83" transform="matrix(1 0 0 1 2574.17 1167)">1</text><text fill="#0063B1" font-family="Cascadia Code,Cascadia Code_MSFontService,sans-serif" font-weight="400" font-size="83" transform="matrix(1 0 0 1 1384.02 942)">&lt;&lt;</text><text font-family="Cascadia Code,Cascadia Code_MSFontService,sans-serif" font-weight="400" font-size="83" transform="matrix(1 0 0 1 1480.27 942)">1</text><text fill="#0063B1" font-family="Cascadia Code,Cascadia Code_MSFontService,sans-serif" font-weight="400" font-size="83" transform="matrix(1 0 0 1 2287.17 942)">&gt;&gt;</text><text font-family="Cascadia Code,Cascadia Code_MSFontService,sans-serif" font-weight="400" font-size="83" transform="matrix(1 0 0 1 2383.42 942)">1</text><text font-family="HarmonyOS Sans,HarmonyOS Sans_MSFontService,sans-serif" font-weight="400" font-size="41" transform="matrix(1 0 0 1 1522.96 68)">All rights reserved. You are not permitted to use, tamper </text><text font-family="HarmonyOS Sans,HarmonyOS Sans_MSFontService,sans-serif" font-weight="400" font-size="41" transform="matrix(1 0 0 1 1522.96 118)">with all elements of this page, reproduction please show </text><text font-family="HarmonyOS Sans,HarmonyOS Sans_MSFontService,sans-serif" font-weight="400" font-size="41" transform="matrix(1 0 0 1 1522.96 167)">the copyright owner.</text><text font-family="HarmonyOS Sans,HarmonyOS Sans_MSFontService,sans-serif" font-weight="400" font-size="41" transform="matrix(1 0 0 1 1522.96 216)">©Nail_ 2024</text></g></svg>