<svg width="3032" height="1492" xmlns="http://www.w3.org/2000/svg" xmlns:xlink="http://www.w3.org/1999/xlink" xml:space="preserve" overflow="hidden"><g transform="translate(-490 -130)"><rect x="649" y="649" width="434" height="728" stroke="#000000" stroke-width="10.3125" stroke-miterlimit="8" fill="none"/><path d="M649 1149 1083.69 1149" stroke="#000000" stroke-width="10.3125" stroke-miterlimit="8" fill="none" fill-rule="evenodd"/><path d="M0-5.15625 385.225-5.15625 385.225 411.93 380.068 406.774 515.874 406.774 515.874 417.086 374.912 417.086 374.912 0 380.068 5.15625 0 5.15625ZM510.718 396.461 541.655 411.93 510.718 427.399Z" transform="matrix(1 0 0 -1 867 1264.93)"/><rect x="1409" y="649" width="434" height="728" stroke="#000000" stroke-width="10.3125" stroke-miterlimit="8" fill="none"/><path d="M1409 1149 1843.69 1149" stroke="#000000" stroke-width="10.3125" stroke-miterlimit="8" fill="none" fill-rule="evenodd"/><rect x="2169" y="649" width="435" height="728" stroke="#000000" stroke-width="10.3125" stroke-miterlimit="8" fill="none"/><path d="M2169 1149 2603.69 1149" stroke="#000000" stroke-width="10.3125" stroke-miterlimit="8" fill="none" fill-rule="evenodd"/><path d="M0-5.15625 385.225-5.15625 385.225 411.93 380.068 406.774 515.874 406.774 515.874 417.086 374.912 417.086 374.912 0 380.068 5.15625 0 5.15625ZM510.718 396.461 541.655 411.93 510.718 427.399Z" transform="matrix(1 0 0 -1 1627 1264.93)"/><rect x="2929" y="649" width="435" height="728" stroke="#000000" stroke-width="10.3125" stroke-miterlimit="8" stroke-dasharray="41.25 30.9375" fill="none"/><path d="M2929 1149 3363.69 1149" stroke="#000000" stroke-width="10.3125" stroke-miterlimit="8" stroke-dasharray="41.25 30.9375" fill="none" fill-rule="evenodd"/><path d="M0-5.15625 385.225-5.15625 385.225 411.93 380.068 406.774 515.874 406.774 515.874 417.086 374.912 417.086 374.912 0 380.068 5.15625 0 5.15625ZM510.718 396.461 541.655 411.93 510.718 427.399Z" transform="matrix(1 0 0 -1 2387 1264.93)"/><text font-family="Consolas,Consolas_MSFontService,sans-serif" font-weight="400" font-size="83" transform="matrix(1 0 0 1 707.554 1551)">nvec</text><text font-family="Consolas,Consolas_MSFontService,sans-serif" font-weight="400" font-size="83" transform="matrix(1 0 0 1 888.595 1551)">[0]</text><text font-family="Consolas,Consolas_MSFontService,sans-serif" font-weight="400" font-size="83" transform="matrix(1 0 0 1 1467.69 1551)">nvec</text><text font-family="Consolas,Consolas_MSFontService,sans-serif" font-weight="400" font-size="83" transform="matrix(1 0 0 1 1648.73 1551)">[1]</text><text font-family="Consolas,Consolas_MSFontService,sans-serif" font-weight="400" font-size="83" transform="matrix(1 0 0 1 2227.83 1551)">nvec</text><text font-family="Consolas,Consolas_MSFontService,sans-serif" font-weight="400" font-size="83" transform="matrix(1 0 0 1 2408.87 1551)">[2]</text><text font-family="Consolas,Consolas_MSFontService,sans-serif" font-weight="400" font-size="83" transform="matrix(1 0 0 1 2942.71 1551)">(</text><text font-family="Consolas,Consolas_MSFontService,sans-serif" font-weight="400" font-size="83" transform="matrix(1 0 0 1 2987.97 1551)">nvec</text><text font-family="Consolas,Consolas_MSFontService,sans-serif" font-weight="400" font-size="83" transform="matrix(1 0 0 1 3169.01 1551)">[3])</text><text font-family="Consolas,Consolas_MSFontService,sans-serif" font-weight="400" font-size="83" transform="matrix(1 0 0 1 590.586 267)">vector&lt;int&gt; </text><text font-family="Consolas,Consolas_MSFontService,sans-serif" font-weight="400" font-size="83" transform="matrix(1 0 0 1 1133.71 267)">nvec</text><text font-family="Consolas,Consolas_MSFontService,sans-serif" font-weight="400" font-size="83" transform="matrix(1 0 0 1 1314.75 267)">={0,1,2};</text><text font-family="Consolas,Consolas_MSFontService,sans-serif" font-weight="400" font-size="83" transform="matrix(1 0 0 1 594.403 530)">nvec.begin</text><text font-family="Consolas,Consolas_MSFontService,sans-serif" font-weight="400" font-size="83" transform="matrix(1 0 0 1 1047.01 530)">()</text><text font-family="Consolas,Consolas_MSFontService,sans-serif" font-weight="400" font-size="83" transform="matrix(1 0 0 1 2920.08 530)">nvec.end</text><text font-family="Consolas,Consolas_MSFontService,sans-serif" font-weight="400" font-size="83" transform="matrix(1 0 0 1 3282.16 530)">()</text><text font-family="Consolas,Consolas_MSFontService,sans-serif" font-weight="400" font-size="83" transform="matrix(1 0 0 1 707.554 927)">front()</text><text font-family="Consolas,Consolas_MSFontService,sans-serif" font-weight="400" font-size="83" transform="matrix(1 0 0 1 2250.46 927)">back()</text><text font-family="HarmonyOS Sans Light,HarmonyOS Sans Light_MSFontService,sans-serif" font-weight="300" font-size="46" transform="matrix(1 0 0 1 2389.65 190)">All rights reserved. You are not permitted to </text><text font-family="HarmonyOS Sans Light,HarmonyOS Sans Light_MSFontService,sans-serif" font-weight="300" font-size="46" transform="matrix(1 0 0 1 2389.65 245)">use, tamper with all elements of this page, </text><text font-family="HarmonyOS Sans Light,HarmonyOS Sans Light_MSFontService,sans-serif" font-weight="300" font-size="46" transform="matrix(1 0 0 1 2389.65 300)">reproduction please show the copyright owner.</text><text font-family="HarmonyOS Sans Light,HarmonyOS Sans Light_MSFontService,sans-serif" font-weight="300" font-size="46" transform="matrix(1 0 0 1 2389.65 355)">©Nail_ 2024</text></g></svg>